<?xml version="1.0" standalone="no"?>
<!DOCTYPE svg PUBLIC "-//W3C//DTD SVG 20010904//EN"
 "http://www.w3.org/TR/2001/REC-SVG-20010904/DTD/svg10.dtd">
<svg version="1.0" xmlns="http://www.w3.org/2000/svg"
 width="900.000000pt" height="900.000000pt" viewBox="0 0 900.000000 900.000000"
 preserveAspectRatio="xMidYMid meet">
<metadata>
Created by potrace 1.10, written by Peter Selinger 2001-2011
</metadata>
<g transform="translate(0.000000,900.000000) scale(0.100000,-0.100000)"
fill="#000000" stroke="none">
<path d="M4402 6364 c-35 -24 -65 -44 -67 -44 -1 0 -53 -34 -115 -75 -62 -41
-114 -75 -115 -75 -2 0 -33 -20 -69 -45 -37 -25 -68 -45 -70 -45 -2 0 -54 -34
-116 -75 -62 -41 -113 -75 -115 -75 -2 0 -53 -34 -115 -75 -62 -41 -114 -75
-115 -75 -2 0 -33 -20 -69 -45 -37 -25 -68 -45 -70 -45 -2 0 -54 -34 -116 -75
-62 -41 -113 -75 -115 -75 -2 0 -53 -34 -115 -75 -62 -41 -114 -75 -115 -75
-2 0 -33 -20 -69 -45 -37 -25 -68 -45 -70 -45 -3 0 -34 -20 -70 -45 -37 -25
-69 -45 -72 -45 -3 0 -23 -13 -43 -29 -20 -15 -40 -30 -46 -32 -5 -2 -57 -35
-115 -74 -58 -38 -114 -74 -125 -80 -37 -19 -30 -48 20 -83 25 -18 47 -32 49
-32 2 0 54 -34 116 -75 62 -41 114 -75 117 -75 3 0 22 -13 43 -30 21 -16 41
-30 44 -30 3 0 35 -20 72 -45 36 -25 67 -45 70 -45 2 0 33 -20 70 -45 36 -25
67 -45 68 -45 2 0 75 -47 161 -105 87 -58 159 -105 161 -105 1 0 32 -20 68
-45 37 -25 68 -45 71 -45 3 0 34 -20 71 -45 36 -25 67 -45 68 -45 2 0 75 -47
161 -105 87 -58 159 -105 161 -105 1 0 32 -20 68 -45 37 -25 68 -45 70 -45 2
0 54 -33 115 -74 61 -41 114 -76 118 -78 5 -1 54 -33 110 -70 57 -38 111 -68
122 -68 10 0 35 11 55 25 20 14 38 25 40 25 2 0 54 34 116 75 62 41 114 75
115 75 2 0 33 20 69 45 37 25 68 45 71 45 3 0 34 20 71 45 36 25 67 45 69 45
1 0 53 34 114 75 62 41 114 75 117 75 4 0 23 14 44 30 21 17 41 30 44 30 3 0
35 20 72 45 36 25 67 45 70 45 2 0 33 20 70 45 36 25 67 45 69 45 1 0 53 34
115 75 62 41 114 75 115 75 2 0 33 20 69 45 37 25 68 45 70 45 2 0 54 34 116
75 62 41 113 75 115 75 2 0 53 34 115 75 62 41 114 75 115 75 2 0 33 20 69 45
37 25 70 45 75 45 13 0 41 35 41 52 0 12 -138 112 -175 127 -5 2 -26 17 -46
32 -20 16 -39 29 -42 29 -3 0 -35 20 -71 45 -37 25 -68 45 -71 45 -3 0 -34 20
-71 45 -36 25 -67 45 -68 45 -2 0 -74 47 -161 105 -86 58 -159 105 -161 105
-1 0 -32 20 -68 45 -37 25 -68 45 -71 45 -3 0 -34 20 -71 45 -36 25 -67 45
-68 45 -2 0 -74 47 -161 105 -86 58 -159 105 -161 105 -1 0 -32 20 -68 45 -37
25 -68 45 -70 45 -2 0 -54 34 -116 75 -62 41 -113 75 -115 75 -2 0 -53 34
-115 75 -62 41 -114 75 -115 75 -2 0 -33 20 -69 45 -37 25 -76 45 -89 44 -12
0 -50 -20 -85 -45z m206 -91 c35 -24 65 -43 67 -43 1 0 53 -34 115 -75 62 -41
114 -75 115 -75 2 0 53 -34 114 -75 62 -41 114 -75 116 -75 2 0 33 -20 69 -45
37 -25 68 -45 70 -45 2 0 54 -34 115 -75 62 -41 113 -75 115 -75 2 0 54 -34
115 -75 62 -41 114 -75 116 -75 2 0 33 -20 69 -45 37 -25 68 -45 70 -45 2 0
74 -47 161 -105 86 -58 159 -105 161 -105 1 0 32 -20 68 -45 37 -25 68 -45 70
-45 2 0 54 -34 116 -75 62 -41 115 -75 119 -75 4 0 17 -10 29 -23 l22 -23
-142 -95 c-79 -52 -147 -96 -153 -98 -5 -2 -38 -24 -73 -48 -35 -23 -65 -43
-68 -43 -2 0 -33 -20 -70 -45 -36 -25 -68 -45 -71 -45 -3 0 -22 -13 -43 -30
-21 -16 -40 -30 -44 -30 -3 0 -55 -34 -117 -75 -61 -41 -113 -75 -115 -75 -2
0 -33 -20 -70 -45 -36 -25 -67 -45 -70 -45 -8 0 -69 -44 -72 -52 -2 -5 -8 -8
-13 -8 -5 0 -38 -20 -75 -45 -36 -25 -67 -45 -69 -45 -2 0 -54 -34 -116 -75
-61 -41 -113 -75 -114 -75 -2 0 -33 -20 -69 -45 -37 -25 -69 -45 -72 -45 -8 0
-69 -44 -72 -52 -2 -5 -8 -8 -13 -8 -5 0 -38 -20 -73 -44 -35 -24 -68 -45 -72
-47 -5 -2 -62 -39 -126 -81 -64 -43 -126 -78 -139 -78 -12 0 -55 22 -96 50
-40 27 -75 50 -77 50 -2 0 -54 34 -115 75 -62 41 -114 75 -116 75 -2 0 -33 20
-69 45 -37 25 -68 45 -70 45 -2 0 -54 34 -115 75 -62 41 -113 75 -115 75 -2 0
-53 33 -113 74 -60 40 -114 75 -119 77 -9 4 -72 45 -319 208 -71 47 -134 88
-140 91 -5 3 -37 23 -70 45 -33 22 -64 42 -70 45 -10 5 -85 54 -320 209 -71
47 -134 88 -140 91 -5 3 -22 13 -38 24 -35 23 -30 30 77 100 45 29 122 79 171
112 50 32 94 61 100 63 5 2 38 24 73 48 35 23 65 43 66 43 2 0 75 47 161 105
87 58 159 105 161 105 2 0 33 20 70 45 36 25 67 45 69 45 2 0 54 34 116 75 61
41 113 75 115 75 2 0 53 34 115 75 61 41 113 75 115 75 2 0 33 20 70 45 36 25
67 45 69 45 2 0 54 34 116 75 61 41 113 75 115 75 2 0 53 34 115 75 61 41 113
75 115 75 2 0 23 13 45 30 48 34 43 35 167 -47z"/>
<path d="M4423 6263 c-63 -45 -77 -53 -95 -59 -10 -4 -18 -10 -18 -15 0 -5
-10 -14 -22 -20 -31 -14 -116 -66 -128 -79 -8 -9 -44 -30 -67 -40 -13 -5 -23
-14 -23 -19 0 -5 -8 -11 -17 -15 -22 -7 -46 -22 -94 -58 -20 -16 -39 -28 -42
-28 -3 0 -34 -19 -69 -42 -83 -56 -100 -66 -120 -74 -10 -3 -18 -10 -18 -15 0
-5 -10 -14 -22 -20 -31 -13 -57 -29 -98 -59 -41 -30 -67 -46 -97 -59 -13 -6
-23 -15 -23 -20 0 -5 -8 -11 -17 -15 -22 -7 -46 -22 -94 -58 -20 -16 -39 -28
-42 -28 -3 0 -34 -19 -69 -42 -83 -56 -100 -66 -120 -74 -10 -3 -18 -10 -18
-15 0 -5 -10 -14 -22 -19 -29 -13 -54 -28 -99 -62 -20 -16 -40 -28 -43 -28 -6
0 -64 -38 -76 -50 -8 -8 -43 -29 -60 -37 -8 -3 -31 -19 -51 -35 -20 -15 -39
-28 -42 -28 -3 0 -34 -19 -69 -42 -83 -56 -100 -66 -120 -74 -9 -3 -19 -12
-22 -20 -3 -8 -11 -14 -19 -14 -7 0 -23 -10 -35 -23 l-22 -23 30 -22 c16 -12
32 -22 36 -22 3 0 23 -12 43 -27 45 -35 70 -50 99 -63 12 -5 22 -14 22 -19 0
-5 8 -12 18 -15 20 -8 37 -18 120 -74 35 -23 66 -42 69 -42 3 0 22 -12 42 -27
41 -32 69 -50 91 -60 8 -4 17 -9 20 -12 9 -11 69 -51 76 -51 3 0 23 -12 43
-27 45 -35 70 -50 99 -63 12 -5 22 -14 22 -19 0 -5 8 -12 18 -15 20 -8 37 -18
120 -74 35 -23 66 -42 69 -42 3 0 22 -12 42 -27 48 -37 72 -52 94 -59 9 -4 17
-10 17 -15 0 -5 10 -14 23 -20 30 -13 56 -29 97 -59 41 -30 67 -46 98 -59 12
-6 22 -15 22 -20 0 -5 8 -12 18 -15 20 -8 37 -18 120 -74 35 -23 66 -42 69
-42 3 0 22 -13 43 -30 21 -17 41 -30 45 -30 4 0 24 -12 44 -27 48 -37 72 -52
94 -59 9 -4 17 -10 17 -14 0 -4 10 -12 23 -19 12 -6 36 -20 52 -31 17 -11 40
-24 53 -30 12 -5 22 -14 22 -20 0 -5 14 -10 30 -10 17 0 30 5 30 10 0 6 10 15
23 20 28 13 53 28 98 63 20 15 40 27 43 27 6 0 64 38 76 50 8 8 43 29 60 37 8
3 31 19 51 35 20 15 39 28 42 28 3 0 34 19 69 42 83 56 100 66 121 74 9 3 17
10 17 15 0 5 10 14 23 20 30 13 56 29 97 59 41 30 67 46 98 59 12 6 22 15 22
20 0 5 8 11 18 15 21 7 45 22 93 59 20 15 39 27 42 27 3 0 34 19 69 42 83 56
100 66 121 74 9 3 17 10 17 15 0 5 10 14 23 19 28 13 53 28 98 63 20 15 40 27
43 27 7 0 67 40 76 51 3 3 12 9 20 13 24 11 53 29 90 56 37 27 66 45 90 56 8
4 31 19 50 33 49 36 72 51 93 57 9 4 17 10 17 15 0 5 10 14 23 19 28 13 53 28
98 63 20 15 41 27 45 27 14 1 54 37 54 48 0 10 -84 72 -97 72 -3 0 -22 12 -42
28 -48 36 -72 51 -93 58 -10 4 -18 10 -18 15 0 5 -10 14 -22 19 -13 6 -36 19
-53 30 -16 11 -38 23 -47 26 -10 4 -18 10 -18 15 0 8 -31 27 -77 48 -13 6 -23
15 -23 20 0 5 -8 12 -17 15 -21 8 -38 18 -121 74 -35 23 -66 42 -69 42 -3 0
-22 12 -42 28 -48 36 -72 51 -93 58 -10 4 -18 10 -18 15 0 5 -10 14 -22 19
-24 10 -60 31 -68 40 -12 13 -97 65 -127 79 -13 6 -23 15 -23 20 0 5 -8 12
-17 15 -21 8 -38 18 -121 74 -35 23 -66 42 -69 42 -3 0 -22 14 -43 30 -21 17
-41 30 -45 30 -4 0 -24 12 -44 28 -48 36 -72 51 -93 58 -10 4 -18 10 -18 14 0
4 -10 12 -22 19 -13 6 -36 20 -53 31 -16 11 -38 23 -47 26 -10 4 -18 10 -18
15 0 8 -31 27 -77 48 -13 6 -23 15 -23 20 0 5 -8 11 -17 15 -10 3 -31 15 -48
26 -16 11 -37 23 -45 27 -8 3 -17 9 -20 12 -11 13 -70 51 -78 51 -5 0 -15 7
-22 15 -19 23 -63 18 -107 -12z m97 -13 c0 -6 10 -15 23 -21 30 -14 115 -66
127 -79 8 -9 44 -30 68 -40 12 -5 22 -14 22 -19 0 -5 8 -11 18 -15 9 -3 26
-11 36 -18 11 -7 49 -32 84 -55 35 -24 66 -43 69 -43 3 0 22 -13 43 -30 21
-16 41 -30 45 -30 4 0 24 -13 44 -28 20 -16 43 -32 51 -36 24 -11 53 -29 90
-56 41 -30 67 -46 98 -59 12 -6 22 -15 22 -20 0 -5 8 -12 18 -15 21 -8 47 -24
92 -56 37 -27 66 -45 90 -56 8 -4 31 -20 51 -36 20 -15 40 -28 44 -28 4 0 24
-13 44 -28 20 -16 43 -32 51 -36 24 -11 53 -29 90 -56 41 -30 67 -46 98 -59
12 -6 22 -15 22 -20 0 -5 8 -12 18 -15 21 -8 47 -24 92 -56 37 -27 66 -45 90
-56 8 -4 31 -20 51 -36 20 -15 40 -28 44 -28 4 0 24 -13 44 -28 20 -16 43 -32
51 -35 17 -8 53 -30 60 -37 3 -3 22 -16 42 -30 41 -27 48 -44 21 -54 -18 -5
-53 -26 -63 -36 -10 -10 -69 -50 -74 -50 -3 0 -34 -20 -70 -45 -37 -25 -69
-45 -72 -45 -3 0 -23 -13 -44 -30 -21 -16 -40 -30 -43 -30 -3 0 -35 -20 -71
-45 -37 -25 -69 -45 -72 -45 -3 0 -23 -13 -43 -28 -20 -16 -43 -32 -51 -35
-17 -8 -52 -29 -60 -37 -12 -12 -70 -50 -76 -50 -3 0 -23 -13 -43 -28 -20 -16
-43 -32 -51 -35 -21 -10 -49 -28 -91 -59 -20 -16 -39 -28 -42 -28 -3 0 -35
-20 -71 -45 -37 -25 -71 -45 -76 -45 -6 0 -10 -4 -10 -8 0 -5 -10 -14 -22 -21
-13 -6 -36 -20 -53 -31 -16 -11 -38 -23 -47 -26 -10 -4 -18 -10 -18 -15 0 -5
-10 -14 -22 -20 -31 -13 -57 -29 -98 -59 -37 -27 -66 -45 -90 -56 -8 -4 -31
-20 -51 -36 -20 -15 -40 -28 -44 -28 -4 0 -24 -14 -45 -30 -21 -17 -40 -30
-43 -30 -3 0 -34 -19 -69 -43 -35 -23 -73 -48 -84 -55 -10 -7 -27 -15 -36 -18
-10 -4 -18 -10 -18 -15 0 -5 -10 -14 -22 -19 -28 -12 -57 -31 -76 -47 -18 -17
-39 -16 -49 0 -4 8 -15 17 -23 20 -8 4 -28 16 -45 27 -16 11 -40 25 -52 31
-13 7 -23 16 -23 21 0 4 -4 8 -10 8 -5 0 -39 20 -76 45 -36 25 -68 45 -71 45
-3 0 -22 13 -42 28 -20 16 -43 32 -51 35 -21 10 -49 28 -91 60 -20 15 -40 27
-43 27 -7 0 -67 40 -76 51 -3 3 -12 8 -20 12 -22 10 -50 28 -91 60 -20 15 -40
27 -43 27 -3 0 -35 20 -72 45 -36 25 -68 45 -71 45 -3 0 -22 13 -42 28 -20 16
-43 32 -51 35 -21 10 -49 28 -91 60 -20 15 -40 27 -43 27 -7 0 -67 40 -76 51
-3 3 -12 8 -20 12 -22 10 -50 28 -91 60 -20 15 -40 27 -43 27 -3 0 -35 20 -72
45 -36 25 -68 45 -71 45 -3 0 -22 14 -43 30 -21 17 -40 30 -43 30 -3 0 -35 20
-71 45 -37 25 -69 45 -72 45 -5 0 -64 40 -74 50 -9 9 -44 30 -67 40 -13 5 -23
14 -23 19 0 5 -8 12 -18 15 -36 14 -62 31 -62 41 0 9 67 62 95 75 15 7 69 44
75 50 3 4 12 9 20 13 22 10 50 28 91 60 20 15 39 27 42 27 3 0 35 20 71 45 37
25 69 45 72 45 3 0 23 13 43 28 20 16 43 32 51 35 17 8 52 29 60 37 12 12 70
50 76 50 3 0 23 13 43 28 20 16 43 32 51 35 21 10 49 28 91 60 20 15 39 27 42
27 3 0 35 20 71 45 37 25 69 45 72 45 3 0 23 12 43 28 48 36 72 51 94 58 9 4
17 10 17 15 0 5 10 14 23 20 30 13 56 29 97 59 37 27 66 45 90 56 8 4 31 20
51 36 20 15 39 28 42 28 3 0 35 20 71 45 37 25 69 45 72 45 3 0 23 12 43 28
48 36 72 51 94 58 9 4 17 10 17 15 0 5 10 14 23 20 39 18 71 38 102 63 30 25
85 35 85 16z"/>
<path d="M3733 5453 l-23 -15 0 -489 0 -489 23 -4 c12 -3 50 -7 83 -10 93 -8
93 -9 96 219 3 172 5 190 21 193 9 2 17 -1 17 -7 0 -11 53 -90 148 -222 34
-46 75 -102 91 -125 33 -46 56 -54 155 -54 78 0 106 8 106 29 0 10 -25 49 -55
88 -30 39 -55 76 -55 81 0 5 -7 15 -15 22 -14 12 -85 109 -162 224 -18 26 -33
57 -33 68 0 11 20 46 45 78 25 32 45 61 45 65 0 3 46 67 103 143 141 186 142
189 127 207 -9 11 -35 15 -108 15 l-95 0 -36 -38 c-20 -21 -62 -76 -94 -122
-130 -191 -177 -255 -187 -258 -7 -3 -10 60 -10 192 0 190 -1 195 -22 210 -30
21 -135 21 -165 -1z"/>
<path d="M4611 5453 c-20 -18 -20 -25 -22 -501 -1 -266 2 -486 5 -490 13 -12
150 -20 173 -9 22 10 23 14 25 201 l3 191 110 3 c171 4 155 24 155 -193 0
-212 -6 -199 101 -208 50 -5 71 -2 88 9 21 15 21 15 21 505 l0 489 -26 10
c-39 15 -127 12 -152 -6 -21 -15 -22 -21 -22 -187 0 -95 -3 -182 -6 -195 -6
-22 -9 -23 -138 -20 l-131 3 -3 198 -2 198 -26 9 c-43 17 -129 12 -153 -7z"/>
<path d="M1341 3436 c-8 -9 -10 -125 -9 -407 l3 -394 3155 0 3155 0 3 394 c1
282 -1 398 -9 407 -17 21 -6281 21 -6298 0z m349 -205 c5 -11 10 -38 10 -60 0
-23 4 -41 8 -41 9 0 52 55 52 66 0 4 10 18 22 31 17 18 32 23 70 23 60 0 72
-19 36 -58 -36 -40 -78 -106 -78 -123 0 -7 29 -61 65 -119 40 -67 60 -109 54
-116 -12 -15 -95 -10 -115 7 -9 7 -20 22 -25 34 -22 49 -47 80 -65 80 -16 0
-20 -9 -24 -57 -3 -31 -8 -59 -11 -62 -8 -8 -79 -15 -95 -9 -11 4 -14 42 -14
207 0 112 3 206 7 209 3 4 26 7 49 7 33 0 46 -5 54 -19z m758 -33 l3 -47 -73
-3 c-70 -3 -73 -4 -73 -28 0 -22 5 -25 40 -28 82 -5 86 -8 83 -55 l-3 -42 -62
-3 c-62 -3 -63 -3 -63 -32 0 -33 1 -33 78 -30 30 1 59 -3 67 -10 17 -14 20
-76 4 -85 -14 -9 -244 -9 -258 -1 -12 8 -16 398 -4 410 4 3 63 5 132 4 l126
-3 3 -47z m373 -13 c10 -33 19 -69 19 -79 0 -10 10 -46 22 -78 22 -62 38 -63
38 -2 0 17 7 51 15 74 8 23 15 53 15 67 0 13 7 37 15 53 14 27 21 30 61 30 29
0 46 -5 50 -14 6 -16 -12 -89 -72 -281 -8 -27 -18 -62 -21 -77 -7 -39 -25 -49
-84 -52 -59 -3 -84 13 -94 61 -8 36 -34 125 -80 275 -24 78 -18 90 46 86 l51
-3 19 -60z m593 49 c3 -9 6 -98 6 -199 0 -208 -3 -218 -67 -210 -20 2 -40 10
-45 17 -13 22 -10 382 4 396 18 18 95 15 102 -4z m453 -69 c24 -44 48 -93 54
-108 6 -15 14 -26 16 -23 3 3 5 45 4 94 -1 49 1 96 5 105 9 23 89 24 98 1 3
-9 6 -98 6 -199 0 -212 -2 -218 -73 -209 -23 2 -45 8 -48 12 -14 15 -69 126
-69 139 0 7 -7 16 -16 20 -9 3 -19 15 -24 27 -4 12 -5 -25 -2 -81 5 -101 5
-103 -19 -111 -20 -8 -47 -9 -81 -3 -10 1 -10 405 -1 415 4 4 30 6 57 4 l50
-3 43 -80z m913 15 c3 -36 9 -71 13 -77 5 -7 26 -13 47 -13 47 0 60 18 60 84
0 68 6 76 56 76 33 0 46 -5 54 -19 6 -12 10 -95 10 -199 0 -195 -2 -202 -57
-208 -51 -5 -62 9 -65 89 l-3 72 -55 0 -55 0 -3 -73 c-3 -66 -5 -74 -26 -82
-24 -9 -72 -7 -82 3 -7 7 -5 397 2 409 3 5 27 8 52 6 l47 -3 5 -65z m634 54
c3 -9 6 -75 6 -147 0 -73 4 -137 8 -144 14 -23 57 -25 83 -5 23 19 24 27 29
164 l5 143 50 0 50 0 3 -120 c4 -136 -10 -218 -41 -256 -20 -25 -97 -59 -132
-59 -27 0 -106 31 -123 49 -46 48 -52 73 -52 228 0 82 3 153 7 156 3 4 28 7
54 7 33 0 49 -4 53 -16z m752 4 c67 -18 94 -54 94 -127 0 -48 -5 -64 -29 -97
-19 -25 -26 -43 -20 -50 17 -21 59 -105 59 -120 0 -7 -6 -14 -12 -15 -7 0 -24
-2 -38 -3 -45 -5 -74 13 -94 57 -43 96 -76 104 -76 18 0 -66 -9 -77 -60 -76
-61 1 -60 -2 -60 214 0 109 3 201 7 204 11 12 180 8 229 -5z m578 -2 c88 -23
136 -94 136 -202 0 -96 -49 -175 -120 -194 -58 -16 -211 -15 -221 1 -14 22
-11 383 3 397 16 16 139 15 202 -2z m712 -11 c3 -14 3 -36 0 -50 -5 -21 -12
-25 -42 -25 -73 0 -74 -3 -74 -169 0 -112 -3 -150 -13 -154 -15 -6 -89 1 -97
9 -3 3 -7 74 -10 157 l-5 152 -45 5 c-38 4 -46 9 -48 29 -2 12 -1 34 2 47 l6
24 160 0 160 0 6 -25z"/>
<path d="M6061 3146 c-19 -22 -10 -90 12 -94 31 -6 67 25 67 57 0 24 -6 31
-31 40 -39 13 -34 14 -48 -3z"/>
<path d="M6657 3144 c-13 -13 -8 -212 5 -216 47 -16 98 38 98 103 0 44 -25
109 -43 109 -6 0 -21 3 -32 6 -11 3 -24 2 -28 -2z"/>
</g>
</svg>
